<svg id="Layer_1" data-name="Layer 1" xmlns="http://www.w3.org/2000/svg" viewBox="0 0 468.96 232.78"><path d="M2457.44,540.56a64.24,64.24,0,1,1,64.31-64.18A64.23,64.23,0,0,1,2457.44,540.56Zm0-95.63a31.39,31.39,0,1,0,31.4,31.47A31.47,31.47,0,0,0,2457.47,444.93ZM2406,472.34a3.78,3.78,0,0,0,7.53.64c.31-2.05.49-4.14.95-6.15,4.29-18.93,19.64-32.38,39.14-34.38,2.53-.26,4.12-2,3.86-4.26s-2.15-3.5-4.64-3.25a51,51,0,0,0-36,19.67A50.49,50.49,0,0,0,2406,472.34Zm55.52,55.42.53,0a51.8,51.8,0,0,0,46.92-47.14,3.78,3.78,0,0,0-2.35-3.93c-2.48-1-4.86.67-5.22,3.56-2.33,18.68-12.36,31.36-30,37.84-3.29,1.21-6.92,1.54-10.41,2.17a3.9,3.9,0,0,0-3.47,4.14A3.82,3.82,0,0,0,2461.47,527.76Z" transform="translate(-2288.4 -412.08)"/><path d="M2577.32,484.76a7.69,7.69,0,0,1-.77,1.21q-5.76,6-11.57,12a2.58,2.58,0,0,0-.81,2q0,16.31,0,32.61V534h-25.33V418.8h25.29v49.92l.4.28a8.14,8.14,0,0,1,.72-1q22.38-24.14,44.78-48.26a2.86,2.86,0,0,1,2.37-1c9.24,0,18.47,0,27.71,0h1.58l-47,48.94q24.53,33.16,49.09,66.34a10.27,10.27,0,0,1-1,.1c-9.48,0-19,0-28.44,0a1.8,1.8,0,0,1-1.64-.9q-17.13-23.55-34.3-47.08C2578.13,485.8,2577.86,485.46,2577.32,484.76Z" transform="translate(-2288.4 -412.08)"/><path d="M2655,418.78h25.42v1.58q0,31.71,0,63.42a38.26,38.26,0,0,0,2.57,14.89c3.41,8.19,9.7,12.52,18.38,13.6a30.4,30.4,0,0,0,12.93-1c8.13-2.53,12.86-8.28,14.74-16.34a48,48,0,0,0,1.19-10.56c.1-21.3.05-42.59.05-63.89v-1.64h25.35c0,.41,0,.83,0,1.25q0,32.18,0,64.37a64.43,64.43,0,0,1-4.09,23.71c-5,12.67-14.06,21.06-27.08,25a66.17,66.17,0,0,1-37.62.37c-15.86-4.45-25.55-15.08-29.74-30.86a67,67,0,0,1-2.12-17.08q-.06-32.79,0-65.57Z" transform="translate(-2288.4 -412.08)"/><path d="M2323.56,442.08H2288.4V418.8H2384v23.25h-35v92h-25.4Z" transform="translate(-2288.4 -412.08)"/><path d="M2354.1,571.81c-8.25,24.28-16.41,48.29-24.59,72.34-2.63,0-5.19,0-7.74,0-.91,0-.9-.65-1.08-1.17q-4.79-13.41-9.53-26.84-10.72-30.23-21.44-60.46c-.16-.44-.28-.89-.44-1.41h10.91l25.45,74.2c.25-.62.4-1,.52-1.31q11.79-35.92,23.55-71.87c.32-1,.71-1.39,1.81-1.33,2.28.11,4.56,0,6.94,0l24.46,74.51c.25-.65.43-1,.57-1.47q12.26-35.71,24.47-71.44c.36-1,.76-1.43,1.9-1.39,3,.1,6,0,9.13,0-.14.46-.25.82-.38,1.18q-15.53,43.83-31,87.65a1.33,1.33,0,0,1-1.52,1.09c-2.12-.07-4.24-.06-6.36,0a1.24,1.24,0,0,1-1.44-1q-6.45-19.23-13-38.44l-10.65-31.52C2354.5,572.84,2354.35,572.47,2354.1,571.81Z" transform="translate(-2288.4 -412.08)"/><path d="M2747.4,593.73V554.31h10v89.06h-9.94V603.28H2696v40.07H2686v-89h10v39.4Z" transform="translate(-2288.4 -412.08)"/><path d="M2418.27,643.43q20.39-45.06,40.66-89.9c3,0,5.88,0,8.8.05.37,0,.88.55,1.07,1q7.42,16.29,14.78,32.6l24.87,55c.17.39.32.79.54,1.31-3.53,0-6.92,0-10.31,0-.31,0-.72-.54-.88-.92-3.16-7-6.31-14.05-9.38-21.11a2.07,2.07,0,0,0-2.3-1.45q-22.8.06-45.6,0a1.76,1.76,0,0,0-1.92,1.27c-3.14,7.08-6.35,14.12-9.49,21.2a1.55,1.55,0,0,1-1.69,1.08C2424.43,643.39,2421.44,643.43,2418.27,643.43Zm65.51-32.69-20.25-45.48-20.38,45.48Z" transform="translate(-2288.4 -412.08)"/><path d="M2667.73,629.46a57.68,57.68,0,0,1-11.12,9c-8.69,5.28-18.18,7-28.19,6.22A42.49,42.49,0,0,1,2599.7,631a44.81,44.81,0,0,1-12-27.84c-.91-11.42,1.58-22,8.22-31.43,7.93-11.24,18.89-17.45,32.59-18.66,14.81-1.3,27.7,3,38.44,13.43a3.06,3.06,0,0,0,.62.34l-7,7.46c-1.43-1.22-2.78-2.41-4.17-3.54a36.39,36.39,0,0,0-26.85-8.49c-11.15,1-19.82,6.31-25.84,15.73-8.68,13.57-7.64,32.71,2.55,45.14,7.79,9.5,18,13.33,30.21,12.3,8.66-.73,15.85-4.62,22.21-10.28l2.69-2.41Z" transform="translate(-2288.4 -412.08)"/><path d="M2578.85,563.54H2549v79.81h-10.18V563.62h-29.88v-9.26h69.92Z" transform="translate(-2288.4 -412.08)"/><path d="M2457.42,452.5a23.82,23.82,0,1,1-23.82,23.78A23.83,23.83,0,0,1,2457.42,452.5ZM2470,476.39a12.55,12.55,0,1,0-12.68,12.47A12.54,12.54,0,0,0,2470,476.39Z" transform="translate(-2288.4 -412.08)"/></svg>